<?xml version="1.0" encoding="UTF-8" standalone="no"?>
<!DOCTYPE svg PUBLIC "-//W3C//DTD SVG 1.1//EN" "http://www.w3.org/Graphics/SVG/1.1/DTD/svg11.dtd">
<svg width="100%" height="100%" viewBox="0 0 444 455" version="1.1" xmlns="http://www.w3.org/2000/svg" xmlns:xlink="http://www.w3.org/1999/xlink" xml:space="preserve" xmlns:serif="http://www.serif.com/" style="fill-rule:evenodd;clip-rule:evenodd;stroke-linecap:round;stroke-linejoin:round;stroke-miterlimit:1.5;">
    <g transform="matrix(1,0,0,1,-1084,-632)">
        <g>
            <g>
                <path d="M1162.59,714.119C1359.83,561.673 1541.88,770.332 1492.79,912.894C1469.34,1006.14 1327.39,1133.62 1159.12,1005.69C1154.11,1005.03 1142.37,1011.22 1140.83,1022.45C1180.98,1066.44 1250.07,1104.04 1361.11,1078.26C1470.87,1047.11 1577.16,918.559 1502.04,756.83C1416.28,606.342 1234.26,597.966 1134.97,703.966C1134.97,713.432 1142.55,723.746 1152.25,721.436C1154.64,720.867 1160.01,715.435 1162.59,714.119Z" style="fill:rgb(255,137,0);stroke:rgb(255,141,0);stroke-opacity:0;stroke-width:1px;"/>
                <path d="M1241.53,954.075L1259.34,936.506C1271.45,973.466 1289.98,989.187 1314.87,988.442C1338.17,986.883 1343.56,971.807 1353.07,945.583C1356.76,930.886 1371.06,912.062 1381.06,898.334C1395.76,871.818 1407.11,868.789 1407.27,826.905C1405.37,813.05 1403.82,798.909 1398.15,787.43C1369.63,729.6 1294.93,711.229 1244.28,785.291L1224.7,764.465C1303.59,654.712 1421.82,715.295 1436.77,818.737C1437.99,872.064 1425.85,879.877 1405.3,913.564C1392.31,930.539 1382.06,947.914 1377.26,966.088C1364.9,998.512 1343.98,1016.37 1313.7,1018.29C1277.05,1016.26 1244.29,990.849 1241.53,954.075" style="fill:rgb(255,137,0);stroke:rgb(255,141,0);stroke-opacity:0;stroke-width:1px;"/>
            </g>
            <g>
                <path d="M1379.03,841.336C1374.97,796.212 1346.24,768.234 1316.12,766.368C1291.04,764.814 1268.27,776.415 1264.6,806.407C1296.96,773.74 1345.49,804.384 1346.52,847.179C1347.4,861.04 1331.89,874.5 1309.69,889.896C1298.16,904.679 1291.27,923.088 1288.62,942.459C1304.86,948.881 1319.19,930.234 1335.47,909.031C1363.77,889.921 1381.65,870.382 1379.03,841.336Z" style="fill:rgb(0,101,173);"/>
                <path d="M1236.92,818.164C1258.21,830.029 1268.14,845.313 1269.05,863.313C1267.67,882.583 1256.2,896.887 1237.13,907.446C1212.21,877.162 1211.29,847.384 1236.92,818.164Z" style="fill:rgb(0,101,173);"/>
                <path d="M1206.52,778.713L1226.47,795.14C1189.83,845.636 1193.7,890.789 1231.26,931.499L1207.57,951.599C1161.5,892.758 1160.21,835.105 1206.52,778.713Z" style="fill:rgb(0,101,173);"/>
                <path d="M1163.44,750.95L1190.29,768.294C1143.23,832.822 1142.04,896.858 1191.86,960.347L1163.85,977.77C1134.55,947.855 1124.27,896.641 1125.41,851.545C1126.41,812.189 1138.04,782.027 1163.44,750.95Z" style="fill:rgb(0,101,173);"/>
                <path d="M1122.41,1005.24L1146.96,989.422C1122.05,958.174 1109.37,915.967 1106.29,865.156C1107.36,816.354 1120.44,774.943 1146.03,741.235L1121.59,725.263C1095.32,761.377 1086.41,811.282 1085.28,865.156C1084.21,916.269 1094.73,964.001 1122.41,1005.24Z" style="fill:rgb(0,101,173);"/>
            </g>
        </g>
    </g>
</svg>
